<?xml version="1.0" encoding="utf-8"?>
<!-- Generator: Adobe Illustrator 18.1.0, SVG Export Plug-In . SVG Version: 6.00 Build 0)  -->
<svg version="1.1" id="Слой_1" xmlns="http://www.w3.org/2000/svg" xmlns:xlink="http://www.w3.org/1999/xlink" x="0px" y="0px"
	 viewBox="0 0 75 35" enable-background="new 0 0 75 35" xml:space="preserve">
<rect x="7.4" y="11.5" fill="#7F7F7F" width="30.4" height="13"/>
<path d="M12.7,22.9c0,0.9,0,1.6,0,2.5c8.7,0,17.4,0,26.2,0c0-1,0-2.1,0-3.1c0.7,1.2,0.9,2.6,2.5,3.1c0-4.8,0-9.5,0-14.2
	c-0.9-0.1-1.1,0.2-2.5,3c0-0.4,0-0.9,0-1.3c0-0.5,0-0.9,0-1.4c0.1-0.5-0.2-0.7-0.7-0.7c-8.3,0-16.7,0-25,0c-0.2,0-0.4,0-0.6,0
	c0,1.8,0,3.5,0,5.3c0.3,0,0.5,0,0.7,0c5.8,0,11.5,0,17.3,0c0.2,0,0.3,0,0.5,0c0.4,0,0.8,0.1,0.8,0.6c0,0.5-0.4,0.5-0.8,0.5
	c-5.9,0-11.8,0-17.7,0c-0.2,0-0.5,0-0.8,0c0,0.2,0,0.5,0,0.7c0.3,0,0.5,0,0.8,0c5.7,0,11.3,0,17,0c0.7,0,1.4,0.1,1.9,0.5
	c0.8,0.6,1,1.5,0.8,2.4c-0.2,0.9-0.8,1.5-1.7,1.7c-0.4,0.1-0.7,0.1-1.1,0.1c-5.6,0-11.2,0-16.8,0C13.3,22.9,13,22.9,12.7,22.9z"/>
<path d="M10.9,17.9c0-2.2,0-4.3,0-6.5c0-0.5-0.1-0.7-0.6-0.6c-2.9,0.2-5.7,0.9-8,2.8c-2.3,1.8-3,4.6-1.6,7c0.9,1.6,2.4,2.6,4.1,3.3
	c1.7,0.7,3.6,1.1,5.4,1.2c0.5,0,0.8-0.1,0.7-0.7c0,0,0,0,0-0.1C10.9,22.2,10.9,20,10.9,17.9z"/>
<path d="M49,11.2v1c9-0.1,16.8-0.1,25-0.2h0v-0.9C66,11.2,58,11.2,49,11.2z"/>
<path d="M46.3,16c0,0.3,0,0.6,0,1c7.6,0,15.1,0,22.6,0c0-0.3,0-0.6,0-1C61.4,16,53.9,16,46.3,16z"/>
<path d="M51.7,18.3c0,0.4,0,0.7,0,1.1c4,0,8,0,12.1,0c0-0.4,0-0.7,0-1.1C59.7,18.3,55.7,18.3,51.7,18.3z"/>
<path d="M46,23.2v1c10-0.1,19.4-0.1,29-0.2h0v-0.9C66,23.2,56,23.2,46,23.2z"/>
</svg>
