<?xml version="1.0" encoding="utf-8"?>
<!-- Generator: Adobe Illustrator 18.1.0, SVG Export Plug-In . SVG Version: 6.00 Build 0)  -->
<svg version="1.1" id="Слой_1" xmlns="http://www.w3.org/2000/svg" xmlns:xlink="http://www.w3.org/1999/xlink" x="0px" y="0px"
	 viewBox="0 0 75 25" enable-background="new 0 0 75 25" xml:space="preserve">
<path fill="#7F7F7F" d="M72.1,20.3c-1,1.2-2.2,2.1-3.6,2.7c0,0,0,0,0,0c-0.6,0.1-1.3,0.3-2,0.3c-4.2,0.3-8-1-11.6-3.2
	c-1.7-1.1-3.5-2.1-5.3-3.1c-2.3-1.2-4.7-1.6-7.2-1.1c-2.3,0.5-3.9-0.9-4.6-2.7c-0.1-0.3-0.2-0.6-0.4-1c-0.3,1.3-0.9,2.3-1.8,3.1
	c-0.7,0.6-1.6,0.9-2.5,0.7c-4-0.9-7.4,0.5-10.7,2.6c-2.4,1.5-4.8,3.1-7.6,3.9c-3,0.9-6,1.2-9,0.3c-1.8-1-3.3-2.3-4.3-4.3
	c-1.2-2.3-1.6-4.7-1-7c0.2-0.8,0.5-1.6,1-2.3c1.2-2,3.9-2.3,5.7-0.9c1.2,1,2.3,3.1,2.4,4.8c-0.8-0.8-1.8-1.3-2.9-1.5
	c-1.3-0.2-1.9,0.3-2.2,1.5c-0.4,1.9,0.9,3.7,3,4.2c2,0.5,3.8,0.2,4.6,0c9.4-3.1,17.1-10.9,22.3-8.9c0.8,0.3,2,1,3.1,3
	c1.4-2.3,2.8-3,3.8-3.3c5.8-1.8,12.7,7.3,21.4,9.1c0,0,4.1,0.9,6.4-0.8c1.1-0.8,1.5-2,1.3-3.4c-0.2-1.2-0.9-1.6-2.1-1.5
	c-1.1,0.2-2.1,0.7-3,1.5c0.3-1.7,0.9-3.4,2.3-4.6c2-1.8,4.9-1.2,6.1,1.2c0.1,0.1,0.1,0.2,0.2,0.3C75.2,13.1,74.5,17.6,72.1,20.3z"/>
<path d="M706.2,824.2c7.5-13.9,17-25.5,30-33.5c28.9-17.7,58.3-18.8,87.6-1.2c13.2,7.9,25.9,16.8,38.7,25.5
	c43.9,29.6,98.9,5.8,118.9-33.2c5.4-10.5,8.6-22.1,12.2-33.7c-0.2,3.8-0.3,7.6-0.7,11.3c-0.3,4-0.8,7.9-1.4,11.9
	c-6.1,41.9-20.6,80.3-47.6,113.4c-27.9,34.3-64.9,53.8-107.2,64c-24.3,5.9-48.9,7.6-73.6,1.6c-24-5.9-42.9-19-55.8-40.3
	c-0.3-0.4-0.6-0.7-1.1-1.2c-4,5.1-7.7,10.2-11.9,15c-13.9,16-32,24.7-52.6,28.1c-38.1,6.3-74-2.1-108.6-17.6
	c-48.6-21.8-79.7-59.5-98.7-108.3c-9.1-23.4-13.9-47.8-15.9-72.8c-0.1-1.6,0-3.3,0.5-5.1c1.1,4.8,2.1,9.6,3.4,14.3
	c10.6,39,46.7,66.5,86.7,66c16.6-0.2,30.8-7.1,44.4-15.9c13.9-9,27.4-19.1,42.1-26.6c30.9-15.7,60.2-10.3,87.3,10
	C693,803.2,700.1,812.9,706.2,824.2z"/>
<path d="M-154,1191.6c-11.5,9.7-22.3,20.1-34.3,28.9c-33.8,25-71.3,41.2-113.5,45c-32.5,2.9-63.9-0.7-92.2-18.4
	c-25-15.7-37.4-38.7-38.2-68.2c-0.4-15.6,2.6-30.1,11.2-43.2c12.4-18.9,35-25.5,54.6-15.9c12.9,6.3,19.7,20.3,16.7,34.1
	c-3.2,14.5-15,24.5-29.6,25c-14.1,0.5-27-9-30.9-22.9c-0.1-0.5-0.3-0.9-0.8-2.2c-3.8,10.3-3.2,19.9,0.3,29.2
	c11.3,30.2,37.5,37.1,66.6,24.3c14.1-6.2,25.3-16.6,35.4-27.9c15-16.7,29.5-33.8,44.8-50.2c10.3-11,22.2-20.4,36.6-25.2
	c26.3-8.9,50.8-5.3,72.2,12.9c6.2-3.8,12-8.5,18.6-11.3c26.6-11.1,51.7-7.2,74.9,9.5c16.2,11.7,28.7,27,41.6,42.1
	c13.4,15.6,26.4,31.7,43.5,43.6c13.4,9.3,28.2,14.2,44.6,12c16.8-2.3,26.6-13.2,32.7-28.1c3.9-9.6,4.7-19.6,1.3-30.7
	c-1,2.2-1.6,3.6-2.2,5c-4.8,12.7-18.4,21.2-31.5,19.7c-15.2-1.7-26-12-28.4-27.1c-2.1-13.1,5.8-27.1,18.2-32.5
	c23.2-10,48.2,0.6,58.5,25.2c15.8,37.6,4.3,87.8-44.1,109.4c-32.6,14.6-66.7,15.5-101.1,8.5c-41.4-8.4-77.4-27.6-109-55.3
	C-143.4,1202-148.9,1196.4-154,1191.6z"/>
<path d="M60.1,828c2.4-13.5,6.9-26.1,17.5-35.4c15.4-13.6,37.7-9.2,47.4,9.1c12.9,24.3,7.7,60.9-11.4,82.3
	c-15.8,17.7-36.1,27-58.7,31.4C10,924-34.3,922-77.3,905.7c-31.5-12-57.9-30.9-76.8-59.4c-0.3-0.4-0.7-0.7-1-1.1
	c-5,6.2-9.7,12.4-14.9,18.3c-13.7,15.6-30.4,27.2-49,36.2c-29.3,14.1-60.3,20-92.7,20.3c-22.6,0.2-44.9-1.3-66.5-8.1
	c-22.9-7.2-42.7-19.2-53.8-41.4c-12-23.9-13.8-48.6,0.4-72.4c9-15.1,29.9-17.7,43.7-6.6c9.5,7.7,17.8,23.7,18.7,36.8
	c-6.6-6.1-14-10.2-22.6-11.6c-9.7-1.6-15,2.1-16.8,11.6c-2.7,14.6,6.9,28.5,22.9,32.5c22,5.5,42.2,1.3,59.3-13.5
	c12.1-10.5,22.9-22.6,34.5-33.8c14-13.5,27.3-27.9,44.6-37.4c26-14.2,52.4-11.6,78.6,0.3c4.5,2.1,8.8,4.7,12.2,6.5
	c11.2-4.5,21.5-9.7,32.4-12.8c30.3-8.6,57.3-1.7,80.3,19.6c14.5,13.4,28.4,27.6,42.6,41.4C11,843.1,23,855.7,40.3,860.3
	c17.1,4.5,34.1,5.2,49.1-6.2c8.5-6.5,11.7-15.5,9.8-26.1c-1.7-9.1-7.1-12.7-16.1-11.3C74.3,818.1,66.7,821.8,60.1,828z"/>
<path d="M422.9,1246.6c12.9,8.1,26.4,14.4,41.1,17.6c23.6,5,46.9,4,69.6-4.9c18.1-7.1,31.7-19.7,40.9-36.4
	c10.7-19.5,19.9-39.8,29.9-59.7c10.3-20.5,24.4-37.6,45.5-47.8c14.1-6.8,29.2-9.9,44.8-10.7c17.8-0.9,35.5-0.1,52.9,5
	c26.1,7.6,44.7,24.3,57.2,47.9c8.2,15.5,15.3,31.7,23,47.5c10.1,20.7,22.3,39.7,43.7,50.9c13.8,7.2,28.7,10.2,44.1,10.9
	c26.8,1.4,51.3-5.4,73.8-20.2c-2.1,1.8-4.2,3.7-6.4,5.4c-2.3,1.9-4.6,3.8-7.1,5.5c-34.5,25-72.9,39.8-115.3,43.1
	c-55,4.2-105.4-9.3-150.5-41.4c-3.1-2.2-5-2.2-8.1,0c-33.5,24.1-71,38.2-112.1,41.4c-62.2,4.8-117.6-12.7-165.7-52.6
	C423.8,1247.6,423.4,1247,422.9,1246.6z"/>
<path d="M468.3,478.5c6.8,6,12.5,12.1,19.1,16.9c19.6,14.4,41.6,13,58-4.9c13.6-14.8,28.9-26.8,46.3-36.5
	c14.9-8.3,30.4-15,47.7-16.4c9.2-0.7,18,0.6,26,5.2c15.9,9.2,29.9,20.5,38.6,37.2c0.2,0.4,0.7,0.7,0.4,0.4
	c7.5-7.6,14.4-15.8,22.5-22.5c27.8-22.9,60.7-25.4,91.1-5.9c17.8,11.4,34.1,25.3,51.2,38c5.7,4.3,11.4,8.7,17.4,12.5
	c12.1,7.6,21.2,7,31.8-2.4c7.2-6.4,13.8-13.5,20.7-20.3c1.9-1.9,3.7-3.8,6.9-5.5c-0.6,5.6-0.9,11.2-2,16.7
	c-4.4,21.5-15.5,39.2-32.2,53.1c-19.8,16.6-42.1,28.4-67.6,33.7c-23.8,5-46.6,2-68.3-9c-21.8-11-42.4-23.6-61-39.5
	c-3.4-2.9-6.6-6-9.9-9c-5.9,6.3-11.9,13.4-18.6,19.8c-20.2,19-42.8,33.7-70.6,39c-19.3,3.7-38.1,0.3-56.6-4.6
	c-23.3-6.2-44.3-17.2-61.8-34c-15.2-14.6-23.2-33-27.6-53.2C469.2,484.7,468.8,481.8,468.3,478.5z"/>
<path d="M73.4,19.8c-1.3,1.7-2.9,2.7-4.8,3.2c0,0,0,0,0,0c-0.6,0.1-1.3,0.3-2,0.3c-4.2,0.3-8-1-11.6-3.2c-1.7-1.1-3.5-2.1-5.3-3.1
	c-2.3-1.2-4.7-1.6-7.2-1.1c-2.3,0.5-3.9-0.9-4.6-2.7c-0.1-0.3-0.2-0.6-0.4-1c-0.3,1.3-0.9,2.3-1.8,3.1c-0.7,0.6-1.6,0.9-2.5,0.7
	c-4-0.9-7.4,0.5-10.7,2.6c-2.4,1.5-4.8,3.1-7.6,3.9c-3,0.9-6,1.2-9,0.3c0,0-0.1,0-0.2-0.1c-3.9-1.3-6.1-4.8-5.7-8.9
	c0.1-0.8,0.2-1.6,0.5-2.4c0.1-0.4,0.3-0.8,0.5-1.1C1,11,0.9,11.6,0.8,12.2c-0.2,3,1.6,5.6,4.6,6.6c3,1,5.8,0.4,8.6-1
	c2.4-1.3,4.4-3.2,6.4-5c1.9-1.7,3.8-3.5,6.1-4.8c1.8-1,3.8-1.5,5.9-1.3c2.4,0.2,4.3,1.2,5,3.8c0.9-2.9,3.5-3.7,5.4-3.8
	c3.4-0.2,6.1,1.4,8.6,3.5c2.2,1.8,4.3,3.8,6.5,5.6c2.3,1.9,4.9,3.3,8,3.5c3.2,0.2,6.6-1.4,7.8-4.4c0.3-0.6,0.3-1.3,0.3-1.3
	c0.2-1.1,0-2-0.2-2.8c-0.1-0.3-0.1-0.6-0.2-0.8c0.6,1.1,0.8,2.1,1,2.8c0.2,0.9,0.5,2.7-0.2,4.8C74.3,18.3,73.9,19.1,73.4,19.8z"/>
<path d="M22.4,466.1c13.2,8,23.7,17.1,31.3,29.3c5,8,7.8,16.7,8.2,26.3c0.9,19.8-14.1,31.7-32.2,32.7c-11.5,0.6-21.9-2.6-32.1-7.7
	c-34.1-17.2-69.6-30.5-107.1-38.3c-4.9-1-9.9-1.5-14.8-1.9c-6.8-0.5-13.2,0.7-19.2,4.1c-6.5,3.6-13.6,4.5-20.1,0.8
	c-11.8-6.6-24.1-5.5-36.4-3c-38.8,8.1-75.4,22.2-110.7,40c-10.1,5.1-20.7,7-31.9,5.5c-19.4-2.5-30.9-17.4-28.2-36.9
	c2-14.7,9.6-26.4,20.1-36.3c5.7-5.4,12.2-9.9,19.1-14c-3.5,7.2-7.3,14.3-10.3,21.7c-3.5,8.7-5.7,17.8-4,27.3
	c1.4,8,5.4,10.9,12.6,7.3c9.5-4.6,18.7-10.1,27.4-16.1c18-12.3,35.3-25.4,53.3-37.7c26.1-17.8,55-20.5,85-13.6
	c9,2.1,17.1,2.2,26.1,0c35.5-8.6,67.7-0.9,96.9,21c17.4,13.1,35.2,25.7,53,38.1c5,3.5,10.6,6.3,16.3,8.5c6.9,2.7,10.8,0.2,12.2-7.1
	c1.7-9.3,0-18.3-3.5-26.8C30.2,482,26.4,474.8,22.4,466.1z"/>
<path d="M-1245,845.8c18.4,24,43.4,33.1,72.4,34.2c15.3,0.6,30.1-1.8,44.3-8c13-5.7,23.3-14.2,31.4-25.9
	c14.4-20.9,33.8-35,59.3-39.6c29.2-5.2,55.1,18.4,51.6,47.1c-2.8,23-25.6,37.5-48.3,31.1c-6-1.7-12.3-2.8-18.6-3.5
	c-7.5-0.9-14.4,1.4-21,4.9c-13.2,7-26.1,14.8-40,20.2c-36,13.9-68.9,6.6-98.3-17.7c-13.2-10.9-23.4-24.5-31.4-39.6
	C-1244.1,847.8-1244.5,846.8-1245,845.8z"/>
<path d="M-697.2,845.3c-6.8,9.7-13,19.9-20.5,29c-14.3,17.3-32.2,29.7-54.2,35.5c-24.5,6.5-47.8,2.3-70.1-8.7
	c-7.4-3.7-15.2-7-21.9-11.8c-14.2-10.2-29.2-9.5-44.8-5.1c-16.9,4.8-32.7-0.3-42.5-13.8c-9.4-13-8.7-29.9,0.2-44.4
	c12.3-20,33.3-24,54.6-17.3c19.7,6.1,36,17.6,47.4,34.7c13.7,20.5,32.8,31.7,56.6,35.3c27.6,4.2,53.9,0.4,76.9-16.6
	c6.4-4.8,11.6-11.2,17.4-16.9C-697.8,845.1-697.5,845.2-697.2,845.3z"/>
<path d="M-1243.9,475.4c3.1,4.8,5.8,10,9.4,14.3c10,11.6,23.7,13.7,37.5,11.3c18.3-3.1,36.3-7.8,54.3-12.4
	c21.6-5.6,43.1-11.3,65.4-12.9c37.9-2.7,71.7,7.2,100.7,32.2c0.8,0.7,1.4,1.4,2.1,2.1c0.3,0.4,0.5,0.8,1.1,1.8
	c-13.5,4.1-26.7,8.3-40,12c-30.9,8.7-62.3,15.2-94.5,16.9c-30.2,1.6-60.2-0.2-88.3-13.2c-21.4-10-37.7-25.2-46.7-47.5
	c-0.4-1.1-0.8-2.2-1.2-3.3C-1244.1,476.3-1243.9,475.8-1243.9,475.4z"/>
<path d="M-972.8,510.6c9.9-6.5,18.5-12.9,27.9-18.1c27.8-15.3,57.7-17.6,88.5-13.2c26.8,3.8,52.2,13.1,78.2,20.1
	c12.6,3.4,25.6,6.2,38.5,7.3c17.3,1.5,30-6.8,37.5-22.6c0.3-0.6,0.6-1.2,1-1.8c0.2-0.3,0.4-0.5,0.7-0.7c0.4,0.2,0.9,0.4,1.3,0.7
	c-3.5,6.4-6.5,13.1-10.6,19c-16.1,22.8-39.3,34.1-65.8,39.6c-27.4,5.7-54.8,4.5-82.3,0.6c-38-5.3-74.6-16.2-110.7-28.8
	C-969.5,512.4-970.3,511.9-972.8,510.6z"/>
</svg>
