<?xml version="1.0" encoding="utf-8"?>
<!-- Generator: Adobe Illustrator 18.1.0, SVG Export Plug-In . SVG Version: 6.00 Build 0)  -->
<svg version="1.1" id="Слой_1" xmlns="http://www.w3.org/2000/svg" xmlns:xlink="http://www.w3.org/1999/xlink" x="0px" y="0px"
	 viewBox="0 0 75 25" enable-background="new 0 0 75 25" xml:space="preserve">
<path fill="#7F7F7F" d="M41.3,6.3C41.3,6.3,41.3,6.3,41.3,6.3L41.3,6.3C41.3,6.3,41.3,6.3,41.3,6.3z"/>
<path fill="#7F7F7F" d="M0.6,6.5C1,7,1.5,7.2,1.7,7.3c9.8,2.7,16.9,4.6,18,4.8c0.5,0.1,2,0.4,2.6,0.5c0.2,0,0.4,0,0.4,0
	c0.3,0,0.5,0,0.9,0.1c1.2,0.1,3.3,0.5,7.4,0.9c0,0,4.2,0.4,6.5,1.1c0.7,0.2,1.1,0.3,1.3,0.4c0.4,0.2,0.7,0.5,1,0.4
	c0.1,0,0.1-0.1,0.2-0.2c0.2-0.4-0.2-0.8-0.6-1c-1.3-0.9-2.8-1.5-2.8-1.5c-0.7-0.1-1.8-0.4-3.2-0.6c-1.3-0.2-2.9-0.5-4.9-0.9
	c-1.5-0.2-3.4-0.5-5.6-0.8c0-0.2,0.2-1-0.2-1.7c-0.2-0.3-0.4-0.5-0.5-0.6C15.2,6.5,8.4,4.8,1.6,3.1C1.2,2.9,0.9,3,0.8,3.1
	C0,3.4-0.2,5.4,0.6,6.5z"/>
<path fill="#7F7F7F" d="M41.2,6.3C41.3,6.3,41.3,6.3,41.2,6.3C41.3,6.3,41.3,6.3,41.2,6.3L41.2,6.3z"/>
<path fill="#7F7F7F" d="M41.3,6.3C41.3,6.3,41.3,6.3,41.3,6.3L41.3,6.3C41.3,6.3,41.3,6.3,41.3,6.3z"/>
<g>
	<path fill="#040404" d="M74.1,3.4C74,3.3,73.5,2.9,72,3c-1.5,0.1-2.6,0.6-2.6,0.6C66,5.3,59.9,7.3,56.9,8.2c-1,0.3-0.3,0.1-4,1.1
		c-6.2,1.8-12.3,3.7-15.2,3.3c-0.1,0-0.6-0.1-1.2,0c-0.4,0-2.9,0.2-3.2,1.4c-0.1,0.5,0.1,1.2,0.6,1.5c0.5,0.3,1-0.1,2.2-0.2
		c1-0.1,1.6-0.1,2.1-0.1c1.5,0,8.3-0.7,21.3-4.1c0.8-0.2,8.2-2.4,9.7-3c1.5-0.6,1.8-0.8,2.7-0.9c0.3,0,1.6-0.1,2.3-1
		c0.3-0.4,0.4-0.8,0.4-1.1C74.6,4.8,74.7,3.9,74.1,3.4z"/>
	<circle fill="#7F7F7F" cx="36" cy="14.2" r="0.5"/>
	<circle fill="#7F7F7F" cx="72.2" cy="5" r="0.6"/>
</g>
</svg>
