<?xml version="1.0" encoding="utf-8"?>
<!-- Generator: Adobe Illustrator 18.1.0, SVG Export Plug-In . SVG Version: 6.00 Build 0)  -->
<svg version="1.1" id="Слой_1" xmlns="http://www.w3.org/2000/svg" xmlns:xlink="http://www.w3.org/1999/xlink" x="0px" y="0px"
	 viewBox="0 0 75 25" enable-background="new 0 0 75 25" xml:space="preserve">
<path fill="#7F7F7F" d="M40.3,6.3C40.3,6.3,40.3,6.3,40.3,6.3L40.3,6.3C40.3,6.3,40.3,6.3,40.3,6.3z"/>
<path fill="#7F7F7F" d="M67.6,1.6c-0.8-0.6-1.8-0.7-2.1-0.7C48.7,0.6,36.3,0.5,34.4,0.6c-0.8,0-3.4,0.2-4.4,0.4
	C29.6,1,29.3,1,29.3,1c-0.5,0.1-0.9,0.2-1.4,0.2c-2,0.4-5.5,0.6-12.3,1.7c0,0-7,1.1-11,1c-1.3,0-1.9-0.1-2.3-0.2
	C1.7,3.5,1,3.2,0.6,3.5C0.5,3.5,0.5,3.6,0.4,3.8C0.2,4.5,1.1,4.9,1.8,5.2c2.5,0.9,5.1,1.2,5.1,1.2c1.2-0.1,3.1-0.2,5.4-0.3
	c2.1-0.1,4.9-0.3,8.3-0.6c2.5-0.2,5.7-0.5,9.5-1c0,0.4,0.1,1.6,1.1,2.6c0.4,0.4,0.8,0.6,1.1,0.8c11.7-0.1,23.5-0.2,35.2-0.3
	c0.7,0.1,1.1-0.1,1.3-0.3C70,6.3,69.5,3,67.6,1.6z"/>
<path fill="#7F7F7F" d="M40.2,6.3C40.3,6.3,40.3,6.3,40.2,6.3C40.3,6.3,40.3,6.3,40.2,6.3L40.2,6.3z"/>
<path fill="#7F7F7F" d="M40.3,6.3C40.3,6.3,40.3,6.3,40.3,6.3L40.3,6.3C40.3,6.3,40.3,6.3,40.3,6.3z"/>
<g>
	<path fill="#040404" d="M75,19.9c-0.1-0.2-0.4-1.2-2.7-2.2c-2.3-1-4.3-1.2-4.3-1.2C61.7,16.1,51.1,14,46,13
		c-1.8-0.4-0.5-0.1-6.8-1.6c-10.4-2.4-21-4.5-24.9-7.5c-0.1-0.1-0.8-0.6-1.8-1.1c-0.6-0.3-4.4-2.1-5.8-0.6C6,3,5.9,4.2,6.3,5
		c0.5,0.8,1.5,0.7,3.4,1.4c1.5,0.6,2.3,1.2,3,1.6c2.2,1.2,12.6,5.7,34.5,11.3c1.3,0.3,13.9,3.1,16.7,3.5c2.7,0.4,3.2,0.3,4.7,0.9
		c0.5,0.2,2.5,1.2,4.2,0.4c0.7-0.3,1.2-0.9,1.5-1.3C74.6,22.4,75.4,21.1,75,19.9z"/>
	<circle fill="#7F7F7F" cx="10.6" cy="4.7" r="0.8"/>
	<circle fill="#7F7F7F" cx="70.9" cy="20.7" r="1"/>
</g>
</svg>
